<?xml version="1.0" standalone="no"?>
<!DOCTYPE svg PUBLIC "-//W3C//DTD SVG 20010904//EN"
 "http://www.w3.org/TR/2001/REC-SVG-20010904/DTD/svg10.dtd">
<svg version="1.0" xmlns="http://www.w3.org/2000/svg"
 width="119.000000pt" height="119.000000pt" viewBox="0 0 119.000000 119.000000"
 preserveAspectRatio="xMidYMid meet">
<metadata>
Created by potrace 1.14, written by Peter Selinger 2001-2017
</metadata>
<g transform="translate(0.000000,119.000000) scale(0.100000,-0.100000)"
fill="#000000" stroke="none">
<path d="M439 1081 c-37 -9 -83 -27 -103 -41 -34 -24 -80 -95 -71 -110 3 -4
28 -7 56 -6 28 1 53 -2 55 -5 2 -4 -15 -7 -39 -7 -75 0 -73 1 -69 -37 3 -26 9
-35 21 -33 23 4 30 -119 6 -128 -19 -8 -69 12 -105 43 -24 19 -29 21 -34 7 -8
-21 39 -62 80 -70 37 -7 41 -18 19 -48 -18 -23 -29 -97 -21 -131 10 -37 45
-41 102 -11 47 25 49 25 52 7 4 -27 37 -36 63 -18 19 14 23 13 41 -5 19 -19
19 -19 54 1 26 15 34 17 34 6 0 -21 21 -24 59 -9 23 10 38 11 46 4 9 -7 21 -7
39 0 26 10 26 9 13 -17 -16 -30 -49 -38 -85 -20 -19 9 -30 7 -58 -8 -33 -17
-38 -18 -85 -3 -36 12 -58 14 -83 7 -20 -5 -43 -6 -57 0 -17 6 -33 4 -53 -6
-15 -8 -39 -12 -52 -9 -18 5 -24 2 -24 -9 0 -18 40 -36 69 -30 11 2 23 0 26
-5 3 -4 -15 -8 -40 -7 -50 1 -69 -11 -59 -36 6 -16 38 -17 378 -15 l371 3 -1
25 c-1 14 6 31 15 38 15 12 14 13 -1 8 -11 -3 -18 0 -18 7 0 21 -71 46 -100
35 -13 -5 -36 -6 -50 -2 -14 4 -28 8 -32 9 -5 2 -10 3 -11 4 -2 0 4 24 14 53
9 28 15 57 12 65 -7 19 -43 16 -43 -3 0 -22 -39 -75 -51 -69 -15 10 30 85 56
95 32 12 32 20 -1 20 -25 0 -50 -22 -124 -108 -11 -13 -25 -20 -30 -17 -6 4 5
24 25 48 45 52 39 75 -15 53 -11 -5 -16 -1 -16 13 0 13 9 22 24 26 64 16 102
69 102 141 0 40 2 44 22 40 12 -1 37 0 55 4 l33 8 -19 -27 c-10 -14 -34 -42
-52 -62 -74 -79 -74 -79 -59 -89 8 -6 70 -10 138 -10 l122 0 0 35 c0 31 -3 35
-35 41 l-34 6 31 39 c33 41 40 88 17 115 -12 15 -61 44 -76 45 -5 0 -9 2 -11
3 -1 2 18 2 44 1 44 -1 45 -1 39 24 -16 66 -79 113 -181 136 -71 17 -256 15
-335 -4z m76 -163 c4 -3 -3 -9 -14 -13 -11 -3 -30 -18 -41 -32 l-20 -26 0 32
c0 26 -4 31 -25 31 -14 0 -25 4 -25 8 0 9 116 10 125 0z m268 0 c-2 -5 -10 -8
-16 -8 -7 0 -20 -11 -30 -24 -18 -24 -19 -24 -38 -5 -10 10 -30 21 -44 25 -47
12 -25 20 54 19 44 0 77 -3 74 -7z m-179 -94 c10 -27 7 -79 -6 -97 -28 -36
-53 20 -36 81 9 34 32 43 42 16z m-62 -188 c28 -5 38 -11 35 -20 -3 -8 1 -22
8 -33 12 -18 11 -24 -17 -57 -36 -44 -59 -36 -34 12 22 43 21 72 -3 72 -12 0
-23 -11 -29 -30 -12 -32 -54 -80 -71 -80 -6 0 -1 20 11 44 21 44 19 81 -5 74
-6 -3 -20 -21 -30 -41 -21 -45 -28 -47 -25 -6 4 40 -20 57 -59 43 -31 -10 -44
-54 -23 -79 14 -17 5 -35 -17 -35 -12 0 -14 9 -10 48 2 26 9 59 15 73 10 26
12 26 81 21 l71 -5 0 33 0 32 31 -30 c19 -18 46 -32 71 -36z m-207 -73 c-6
-27 -7 -27 -20 -9 -11 14 -11 24 -4 38 15 29 33 7 24 -29z m55 -173 c0 -5 -5
-10 -11 -10 -5 0 -7 5 -4 10 3 6 8 10 11 10 2 0 4 -4 4 -10z m30 0 c0 -5 -5
-10 -11 -10 -5 0 -7 5 -4 10 3 6 8 10 11 10 2 0 4 -4 4 -10z m150 -6 c0 -2 -7
-4 -15 -4 -8 0 -15 4 -15 10 0 5 7 7 15 4 8 -4 15 -8 15 -10z m25 6 c3 -5 1
-10 -4 -10 -6 0 -11 5 -11 10 0 6 2 10 4 10 3 0 8 -4 11 -10z m145 0 c0 -5 -5
-10 -11 -10 -5 0 -7 5 -4 10 3 6 8 10 11 10 2 0 4 -4 4 -10z m40 0 c0 -5 -8
-10 -17 -10 -15 0 -16 2 -3 10 19 12 20 12 20 0z m40 0 c0 -5 -8 -10 -17 -10
-15 0 -16 2 -3 10 19 12 20 12 20 0z m25 0 c3 -5 1 -10 -4 -10 -6 0 -11 5 -11
10 0 6 2 10 4 10 3 0 8 -4 11 -10z"/>
<path d="M913 618 c-75 -16 -120 -101 -70 -132 14 -9 26 -6 58 12 23 13 39 19
35 14 -10 -16 21 -41 43 -35 26 7 98 69 113 96 6 12 -10 2 -35 -23 -41 -40
-87 -68 -87 -54 0 3 16 24 35 47 19 22 35 47 35 54 0 15 -26 18 -35 3 -12 -19
-33 -11 -28 10 6 22 1 23 -64 8z m-3 -38 c-8 -5 -17 -7 -19 -4 -3 3 1 9 9 14
8 5 17 7 19 4 3 -3 -1 -9 -9 -14z m40 -15 c0 -7 -14 -25 -31 -39 -35 -29 -65
-35 -55 -10 3 9 6 20 6 25 0 5 6 9 13 9 8 0 22 9 32 20 19 20 35 18 35 -5z"/>
<path d="M249 304 c-14 -17 -23 -16 169 -16 83 1 152 -2 152 -6 0 -4 -68 -7
-151 -7 -163 0 -176 -4 -142 -48 56 -75 165 -106 358 -102 157 3 214 19 279
76 74 65 66 74 -64 73 -60 0 -110 3 -110 7 0 4 52 7 116 7 111 0 136 4 120 20
-4 4 -167 7 -362 8 -287 1 -356 -1 -365 -12z m481 -22 c0 -4 -34 -8 -75 -8
-41 -1 -75 1 -75 5 0 3 34 7 75 8 41 1 75 -2 75 -5z"/>
</g>
</svg>
